<svg xmlns="http://www.w3.org/2000/svg" viewBox="0 0 256 256" fill="none" role="img" aria-label="SaFE Planner Logo">
  <title>SaFE Planner</title>
  <desc>Menschen, Zusammenarbeit und Priorisierung in Limettengrün.</desc>
  <style>
    .accent { stroke: #84CC16; fill: #84CC16; }
    .line { stroke: #0F172A; }
    .fill-dark { fill: #0F172A; }
  </style>

  <!-- Framing -->
  <rect x="10" y="10" width="236" height="236" rx="28" fill="none" stroke="#84CC16" stroke-width="6"/>

  <!-- Collaboration network -->
  <g stroke-linecap="round" stroke-linejoin="round" stroke-width="6">
    <path class="line" d="M128 62 L70 158 L186 158 Z"/>
  </g>
  <circle class="accent" cx="128" cy="62" r="10"/>
  <circle class="accent" cx="70" cy="158" r="10"/>
  <circle class="accent" cx="186" cy="158" r="10"/>

  <!-- Prioritization bars -->
  <g transform="translate(200,98)">
    <rect class="fill-dark" x="0" y="56" width="8" height="24" rx="2"/>
    <rect class="fill-dark" x="12" y="44" width="8" height="36" rx="2"/>
    <rect class="fill-dark" x="24" y="30" width="8" height="50" rx="2"/>
    <rect class="accent"    x="36" y="14" width="8" height="66" rx="2"/>
  </g>

  <!-- Gentle upward arrow indicating flow/prioritization -->
  <g class="line" stroke-width="5" stroke-linecap="round" stroke-linejoin="round">
    <path d="M44 196 C 82 174, 112 170, 150 162"/>
    <path d="M150 162 l-10 -10"/>
    <path d="M150 162 l-2 -14"/>
  </g>

  <!-- Word mark -->
  <g class="fill-dark" font-family="system-ui, -apple-system, Segoe UI, Roboto, Helvetica, Arial, sans-serif" font-size="18" font-weight="700">
    <text x="16" y="230">SaFE Planner</text>
  </g>
</svg>

